# xmcd CD database file
#
# Track frame offsets:
#	150
#	15837
#	39407
#	53170
#	70987
#	90620
#	107905
#	130417
#	147225
#	166602
#	190587
#	206665
#
# Disc length: 3014 seconds
#
# Revision: 0
# Processed by: cddbd v1.5.1PL0 Copyright (c) Steve Scherf et al.
# Submitted via: CDex 1.51
#
DISCID=9b0bc40c
DTITLE=Japanese Dream - NACK5 MUSIC CHALLENGER GrandPrix4
DYEAR=1998
DGENRE=
TTITLE0=ステネコスマイル
TTITLE1=SHINY TINY BLUE
TTITLE2=さよなら、ペニーローファー
TTITLE3=Concert G-dur
TTITLE4=忘れたれないNight＆Day
TTITLE5=”ガタンゴトン”
TTITLE6=意味
TTITLE7=トマト
TTITLE8=虹
TTITLE9=普通の人
TTITLE10=恋パワー貯金箱
TTITLE11=ブルーベリー
EXTD=YEAR: 1998
EXTT0=
EXTT1=
EXTT2=
EXTT3=
EXTT4=
EXTT5=
EXTT6=
EXTT7=
EXTT8=
EXTT9=
EXTT10=
EXTT11=
PLAYORDER=
